# xmcd
#
# Track frame offsets: 
#        183
#        9488
#        22143
#        40373
#        55013
#        67423
#        89173
#        98543
#        114970
#        125985
#        143840
#        158013
#        171673
#
# Disc length: 2583 seconds
#
# Revision: 0
# Processed by: cddbd v1.4PL0 Copyright (c) Steve Scherf et al.
# Submitted via: ExactAudioCopy v0.90a11
#
DISCID=bc0a150d
DTITLE=Poutnici - Je to v nas
DYEAR=1900
DGENRE=Bluegrass
TTITLE0=Druhym dechem
TTITLE1=Je to v nas
TTITLE2=Prognoza
TTITLE3=Osmiramenny svicen
TTITLE4=Zkusenost
TTITLE5=Kamen
TTITLE6=Koncert D dur 3.veta Allegro
TTITLE7=Obycejni smutni lidi
TTITLE8=Cas prilis dlouho stal
TTITLE9=Pochoutka
TTITLE10=Chybi nam snad laska
TTITLE11=Zdalo se mne zdalo
TTITLE12=Aktualni zpravy
EXTD=
EXTT0=
EXTT1=
EXTT2=
EXTT3=
EXTT4=
EXTT5=
EXTT6=
EXTT7=
EXTT8=
EXTT9=
EXTT10=
EXTT11=
EXTT12=
PLAYORDER=
